<?xml version="1.0" encoding="utf-8"?>
<!-- Generator: Adobe Illustrator 16.0.0, SVG Export Plug-In . SVG Version: 6.00 Build 0)  -->
<!DOCTYPE svg PUBLIC "-//W3C//DTD SVG 1.1//EN" "http://www.w3.org/Graphics/SVG/1.1/DTD/svg11.dtd">
<svg version="1.1" id="Layer_1" xmlns="http://www.w3.org/2000/svg" xmlns:xlink="http://www.w3.org/1999/xlink" x="0px" y="0px"
	 width="5000px" height="2388.367px" viewBox="0 0 5000 2388.367" enable-background="new 0 0 5000 2388.367" xml:space="preserve">
<rect x="478.305" y="404.904" stroke="#020202" stroke-miterlimit="10" width="217.012" height="1522.565"/>
<rect x="478.305" y="387.424" stroke="#020202" stroke-miterlimit="10" width="573.971" height="217.012"/>
<rect x="478.305" y="1066.408" stroke="#020202" stroke-miterlimit="10" width="573.971" height="217.01"/>
<rect x="835.275" y="1066.496" stroke="#020202" stroke-miterlimit="10" width="217" height="860.975"/>
<rect x="1192.237" y="1066.535" stroke="#020202" stroke-miterlimit="10" width="217.012" height="860.936"/>
<rect x="835.275" y="1066.408" stroke="#020202" stroke-miterlimit="10" width="574.013" height="217.01"/>
<rect x="835.275" y="1710.496" stroke="#020202" stroke-miterlimit="10" width="647.515" height="216.975"/>
<rect x="1524.292" y="387.387" stroke="#000000" stroke-miterlimit="10" width="217.011" height="878.493"/>
<rect x="1524.292" y="369.92" stroke="#000000" stroke-miterlimit="10" width="573.97" height="217.012"/>
<rect x="1524.292" y="1048.904" stroke="#000000" stroke-miterlimit="10" width="573.97" height="216.975"/>
<rect x="1881.264" y="1049.018" stroke="#000000" stroke-miterlimit="10" width="216.998" height="878.453"/>
<rect x="1524.292" y="1710.496" stroke="#000000" stroke-miterlimit="10" width="573.97" height="216.975"/>
<rect x="2258.167" y="1049.055" stroke="#000000" stroke-miterlimit="10" width="216.978" height="878.416"/>
<rect x="1881.264" y="1288.766" stroke="#000000" stroke-miterlimit="10" width="772.399" height="217.039"/>
<rect x="2653.663" y="1083.926" width="217.049" height="860.937"/>
<rect x="3010.71" y="1083.963" width="216.976" height="860.898"/>
<rect x="2653.663" y="1083.85" width="574.021" height="216.961"/>
<rect x="2653.663" y="1727.887" width="647.562" height="216.976"/>
<rect x="3339.821" y="1084.152" width="217.049" height="860.936"/>
<rect x="3339.821" y="1084.076" width="574.021" height="217.049"/>
<rect x="3339.821" y="1728.127" width="574.021" height="216.961"/>
<rect x="3958.691" y="1084.152" width="216.976" height="860.709"/>
<polygon points="4594.427,1285.559 4168.27,1670.139 4022.857,1509.014 4449.018,1124.434 "/>
<polygon points="4594.427,1781.91 4168.27,1397.331 4022.857,1558.456 4449.018,1943.037 "/>
</svg>
